<?xml version="1.0" encoding="utf-8"?>
<!-- Generator: Adobe Illustrator 27.1.0, SVG Export Plug-In . SVG Version: 6.00 Build 0)  -->
<svg version="1.1" id="Layer_1" xmlns="http://www.w3.org/2000/svg" xmlns:xlink="http://www.w3.org/1999/xlink" x="0px" y="0px"
	 viewBox="0 0 201 201" enable-background="new 0 0 201 201" xml:space="preserve">
<g>
	<defs>
		<rect id="SVGID_1_" y="230" width="200.2" height="200.2"/>
	</defs>
	<clipPath id="SVGID_00000029033560305269044770000015582138012703935360_">
		<use xlink:href="#SVGID_1_"  overflow="visible"/>
	</clipPath>
	<g clip-path="url(#SVGID_00000029033560305269044770000015582138012703935360_)">
		<g>
			<path fill="#FFFFFF" d="M99.9,10.4l0.8-1.6c0.8,0.6,1.9,1,3,1.1c1.3,0,1.8-0.4,1.8-0.9c0.1-1.7-5.3-0.7-5.2-4.1
				c0.1-1.6,1.4-2.8,4-2.7c1.2,0,2.3,0.4,3.2,0.9l-0.7,1.6c-0.8-0.5-1.7-0.8-2.5-0.8c-1.3,0-1.8,0.4-1.8,1c-0.1,1.7,5.3,0.7,5.2,4.1
				c-0.1,1.5-1.4,2.8-4,2.7C102.2,11.5,100.7,11.1,99.9,10.4z"/>
			<path fill="#FFFFFF" d="M115.8,9.6L110.5,9c0.1,0.9,0.8,1.5,1.8,1.7c0.7,0.1,1.3-0.1,1.8-0.5l0.9,1.3c-0.7,0.7-1.8,0.9-3,0.8
				c-2.4-0.3-3.8-2-3.5-4.1c0.3-2.1,2.1-3.4,4.2-3.1c2.1,0.3,3.5,1.8,3.2,4.1C115.9,9.2,115.8,9.5,115.8,9.6z M110.6,7.8l3.4,0.4
				c0-0.9-0.6-1.6-1.5-1.7C111.6,6.4,110.9,6.9,110.6,7.8z"/>
			<path fill="#FFFFFF" d="M116.9,9.2c0.5-2.1,2.4-3.2,4.6-2.7s3.4,2.3,3,4.4c-0.5,2.1-2.4,3.2-4.6,2.7
				C117.7,13.1,116.4,11.3,116.9,9.2z M122.4,10.4c0.3-1.2-0.3-2.1-1.3-2.3c-1-0.2-1.9,0.3-2.2,1.5c-0.3,1.2,0.3,2.1,1.3,2.3
				C121.2,12.2,122.1,11.6,122.4,10.4z"/>
			<path fill="#FFFFFF" d="M122.1,16.3L123,15c0.2,0.2,0.4,0.4,0.8,0.5c0.5,0.1,0.9-0.1,1.1-0.7l2-6.8l2,0.6l-2,6.7
				c-0.5,1.6-1.7,2.3-3.3,1.8C122.9,16.9,122.4,16.6,122.1,16.3z M127.3,5.9c0.2-0.6,0.8-0.9,1.5-0.7c0.7,0.2,1.1,0.8,0.9,1.4
				c-0.2,0.7-0.8,1-1.6,0.8S127.1,6.5,127.3,5.9z"/>
			<path fill="#FFFFFF" d="M130.9,9.2l1.9,0.7l-2.3,6.7l-1.9-0.7L130.9,9.2z M131.3,7.1c0.2-0.6,0.9-0.9,1.6-0.7s1,0.9,0.8,1.5
				c-0.2,0.6-0.9,0.9-1.6,0.7S131.1,7.7,131.3,7.1z"/>
			<path fill="#FFFFFF" d="M140.4,16.2l-1.6,3.7l-1.9-0.8l1.5-3.4c0.4-1,0.2-1.7-0.7-2.1c-0.9-0.4-1.8-0.1-2.3,1.1l-1.4,3.2
				l-1.9-0.8l3.8-8.9l1.9,0.8l-1.3,3.1c0.7-0.3,1.6-0.2,2.4,0.1C140.4,12.8,141.2,14.2,140.4,16.2z"/>
			<path fill="#FFFFFF" d="M153.5,20l-5.7,4.9l-1.7-1l0.8-4.6l-3.6,3l-1.7-1l1.3-7.4l1.7,1l-0.9,5l3.9-3.3l1.5,0.9l-0.9,5l3.9-3.3
				L153.5,20z"/>
			<path fill="#FFFFFF" d="M157.7,26.9l-2.4,3.3l-1.5-1.1l0.5-0.7c-0.7,0.3-1.5,0.1-2.3-0.5c-1.3-1-1.6-2.3-0.9-3.3
				c0.7-1,1.9-1.2,3.7,0.1l1.3,1c0.5-0.7,0.4-1.4-0.5-2.1c-0.6-0.4-1.4-0.7-2-0.7l0.2-1.6c0.9,0,2,0.4,3,1.1
				C158.5,23.6,158.9,25.2,157.7,26.9z M155,27.2l0.4-0.6l-1.1-0.8c-0.8-0.6-1.2-0.5-1.5-0.1c-0.3,0.4-0.1,0.9,0.4,1.4
				C153.8,27.4,154.4,27.5,155,27.2z"/>
			<path fill="#FFFFFF" d="M163.6,25.9c-0.2,0.3-0.4,0.4-1.1,0.8l-1.8,1l-1-0.8l1.8-1.2c-0.2-0.4-0.2-0.9,0.2-1.3
				c0.5-0.6,1.2-0.6,1.8-0.2C164,24.6,164.1,25.4,163.6,25.9z"/>
			<path fill="#FFFFFF" d="M158.9,32.3l1.5-0.6c0.2,0.7,0.7,1.6,1.3,2.2c0.7,0.6,1.1,0.7,1.4,0.4c0.8-0.8-3.2-2.9-1.2-4.9
				c0.9-1,2.4-0.9,3.9,0.5c0.7,0.7,1.4,1.5,1.6,2.3l-1.5,0.6c-0.2-0.8-0.7-1.3-1.1-1.8c-0.7-0.6-1.2-0.7-1.4-0.4
				c-0.8,0.9,3.1,2.9,1.2,5c-0.9,1-2.4,0.8-4-0.6C159.8,34.1,159.1,33,158.9,32.3z"/>
			<path fill="#FFFFFF" d="M174.1,44c-1.7,1.4-3.8,1.2-5-0.3c-0.6-0.7-0.8-1.4-0.7-2.2l-2.5,2.1l-1.3-1.6l7.3-6.2l1.3,1.5l-0.6,0.5
				c0.8,0,1.5,0.4,2.1,1.1C175.8,40.5,175.7,42.6,174.1,44z M172.7,42.4c0.9-0.8,1-1.8,0.3-2.6c-0.7-0.8-1.7-0.9-2.7-0.1
				c-0.9,0.8-1,1.8-0.3,2.6C170.7,43.1,171.8,43.2,172.7,42.4z"/>
			<path fill="#FFFFFF" d="M174.6,44.8c1.7-1.2,3.9-0.7,5.2,1.1c1.3,1.8,1,4-0.8,5.2c-1.7,1.2-3.9,0.7-5.2-1.1
				C172.6,48.2,172.9,46,174.6,44.8z M177.9,49.5c1-0.7,1.2-1.7,0.6-2.6c-0.6-0.8-1.6-1.1-2.6-0.4c-1,0.7-1.2,1.8-0.6,2.6
				C175.8,49.9,176.9,50.2,177.9,49.5z"/>
			<path fill="#FFFFFF" d="M185.1,54.4l-1.6,0.9c-0.1-0.2-0.1-0.3-0.2-0.4c-0.6-1-1.5-1.3-2.6-0.6l-2.9,1.7l-1-1.8l6.1-3.5l1,1.7
				l-0.8,0.5C183.8,52.9,184.5,53.5,185.1,54.4z"/>
			<path fill="#FFFFFF" d="M181.8,63.1c-0.5-0.2-0.9-0.7-1.1-1.3c-0.7-1.5-0.4-2.7,1.1-3.5l2.6-1.3l-0.5-1l1.4-0.7l0.5,1l1.5-0.8
				l0.9,1.8l-1.5,0.8l0.8,1.6l-1.4,0.7l-0.8-1.6l-2.6,1.3c-0.5,0.3-0.7,0.7-0.4,1.2c0.1,0.3,0.4,0.5,0.6,0.6L181.8,63.1z"/>
			<path fill="#FFFFFF" d="M189.1,63.6l0.7,1.7l-1.4,0.6l-0.7-1.6l-4.9,2.1l-0.8-1.9l4.9-2.1l-0.4-1l1.4-0.6l0.4,1l0.3-0.1
				c1.5-0.6,2.8-0.1,3.5,1.5c0.2,0.5,0.4,1.1,0.3,1.6l-1.6,0.1c0.1-0.3,0-0.6-0.1-0.9c-0.2-0.6-0.7-0.7-1.3-0.5L189.1,63.6z"/>
			<path fill="#FFFFFF" d="M187,67c2-0.7,4,0.4,4.7,2.5c0.7,2.1-0.2,4.1-2.2,4.8s-4-0.4-4.7-2.5C184.1,69.7,185,67.7,187,67z
				 M188.8,72.4c1.2-0.4,1.6-1.4,1.3-2.3c-0.3-1-1.3-1.5-2.4-1.1c-1.2,0.4-1.6,1.4-1.3,2.3C186.7,72.3,187.7,72.8,188.8,72.4z"/>
			<path fill="#FFFFFF" d="M195.8,74.2l0.5,2l-9.4,2.5l-0.5-2L195.8,74.2z"/>
			<path fill="#FFFFFF" d="M194.2,78.9l0.4,2l-6.9,1.5l-0.4-2L194.2,78.9z M196.3,78.2c0.6-0.1,1.2,0.3,1.4,1s-0.2,1.3-0.8,1.5
				c-0.7,0.1-1.3-0.2-1.4-1C195.3,78.9,195.6,78.3,196.3,78.2z"/>
			<path fill="#FFFFFF" d="M191.6,83.1c2.1-0.3,3.8,1.1,4.2,3.3c0.3,2.2-0.9,4-3,4.3s-3.8-1.1-4.2-3.3
				C188.2,85.2,189.5,83.4,191.6,83.1z M192.4,88.7c1.2-0.2,1.8-1,1.7-2.1c-0.1-1-1-1.7-2.2-1.5c-1.2,0.2-1.8,1.1-1.7,2.1
				C190.4,88.2,191.2,88.9,192.4,88.7z"/>
			<path fill="#FFFFFF" d="M191.4,102.4l-1.7,0l-0.1-6.9l1.4,0l3.4,3.5c0.8,0.8,1.3,0.9,1.7,0.9c0.7,0,1.1-0.5,1.1-1.5
				c0-0.8-0.3-1.4-1-1.9l1-1.6c1,0.7,1.7,2,1.8,3.6c0,2-1,3.4-2.7,3.5c-0.9,0-1.7-0.2-2.9-1.5l-2-2.1L191.4,102.4z"/>
			<path fill="#FFFFFF" d="M194.2,103.4c3,0.2,4.6,2,4.4,4.3c-0.2,2.3-2,3.8-5,3.6c-3-0.2-4.6-2-4.4-4.3
				C189.4,104.7,191.2,103.2,194.2,103.4z M193.8,109.1c2.1,0.2,3-0.5,3.1-1.6c0.1-1-0.7-1.8-2.8-2c-2.1-0.2-3,0.5-3.1,1.6
				C190.9,108.2,191.8,109,193.8,109.1z"/>
			<path fill="#FFFFFF" d="M189.6,118.7l-1.7-0.3l1.1-6.8l1.4,0.2l2.7,4c0.6,0.9,1.1,1.1,1.5,1.2c0.7,0.1,1.2-0.3,1.4-1.3
				c0.1-0.8-0.1-1.5-0.6-2l1.2-1.4c0.9,0.9,1.4,2.2,1.1,3.9c-0.3,2-1.6,3.2-3.2,2.9c-0.9-0.1-1.6-0.5-2.6-2l-1.6-2.4L189.6,118.7z"
				/>
			<path fill="#FFFFFF" d="M188.8,126.4c-1.5-0.4-2.6-1.9-1.9-4.4c0.3-1.2,1-2.4,1.8-3.1l1.4,1.2c-0.7,0.5-1.2,1.4-1.4,2.3
				c-0.3,1,0,1.8,0.7,2c0.7,0.2,1.2-0.2,1.5-1.4l0.2-0.9l1.4,0.3l1.6,2.4l1-3.8l1.7,0.4l-1.6,6.2l-1.3-0.3l-1.8-2.6
				C191.3,126.1,190.1,126.7,188.8,126.4z"/>
			<path fill="#FFFFFF" d="M187.5,135.2l-1.4,3.4l-1.5-0.6l1.4-3.4L187.5,135.2z"/>
			<path fill="#FFFFFF" d="M179.1,144.6l1,1.5c-0.9,0.4-1.8,1.1-2.4,2.1c-0.7,1.1-0.6,1.7-0.1,2c1.5,0.9,3.3-4.2,6.2-2.5
				c1.3,0.8,1.8,2.6,0.4,4.8c-0.6,1-1.5,1.8-2.4,2.3l-1-1.4c0.9-0.5,1.5-1.1,2-1.8c0.7-1.1,0.5-1.7,0-2c-1.4-0.9-3.3,4.3-6.1,2.5
				c-1.3-0.8-1.7-2.6-0.4-4.8C177,146,178.1,145,179.1,144.6z"/>
			<path fill="#FFFFFF" d="M171.9,158.8l3.2-4.3c-0.8-0.4-1.7-0.1-2.3,0.8c-0.4,0.6-0.6,1.2-0.5,1.8l-1.6,0.2c-0.2-1,0.1-2,0.8-3
				c1.5-1.9,3.6-2.3,5.3-1c1.7,1.3,1.9,3.5,0.6,5.2c-1.2,1.7-3.3,2.1-5.1,0.7C172.2,159.1,172,158.9,171.9,158.8z M176,155.2
				L174,158c0.8,0.4,1.7,0.2,2.2-0.5C176.7,156.8,176.7,155.9,176,155.2z"/>
			<path fill="#FFFFFF" d="M171.7,159.9c1.6,1.4,1.6,3.7,0.1,5.3c-1.5,1.7-3.7,1.9-5.3,0.4c-1.6-1.4-1.6-3.6-0.1-5.3
				C167.9,158.7,170.1,158.5,171.7,159.9z M167.9,164.1c0.9,0.8,2,0.7,2.7,0s0.7-1.8-0.2-2.7c-0.9-0.8-2-0.7-2.7,0
				C167,162.2,167,163.3,167.9,164.1z"/>
			<path fill="#FFFFFF" d="M163,160.9l0.6,1.4c-0.3,0-0.6,0.2-0.8,0.4c-0.4,0.4-0.4,0.8,0.1,1.3l4.9,5.1l-1.5,1.4l-4.9-5.1
				c-1.1-1.2-1.2-2.6,0.1-3.8C162,161.4,162.5,161,163,160.9z M169.4,170.6c0.4,0.5,0.4,1.2-0.1,1.7s-1.2,0.5-1.7,0.1
				c-0.5-0.5-0.4-1.2,0.1-1.7S169,170.1,169.4,170.6z"/>
			<path fill="#FFFFFF" d="M164.8,172.1l-1.5,1.3l-4.7-5.3l1.5-1.3L164.8,172.1z M166.3,173.5c0.4,0.5,0.4,1.2-0.2,1.7
				c-0.6,0.5-1.3,0.5-1.7,0c-0.5-0.5-0.4-1.2,0.2-1.7C165.2,173,165.9,173,166.3,173.5z"/>
			<path fill="#FFFFFF" d="M154,176.9l-2.4-3.2l1.6-1.2l2.3,3c0.7,0.9,1.4,1,2.1,0.5c0.8-0.6,1-1.5,0.2-2.5l-2.1-2.8l1.6-1.2
				l5.9,7.7l-1.6,1.2l-2.1-2.7c-0.1,0.8-0.6,1.5-1.3,2C156.9,178.6,155.3,178.6,154,176.9z"/>
			<path fill="#FFFFFF" d="M144.2,186.4l-1.4-7.4l1.7-1l3.6,3l-0.8-4.6l1.7-1l5.8,4.8l-1.7,1l-3.9-3.3l0.9,5l-1.5,0.9l-3.9-3.2l1,5
				L144.2,186.4z"/>
			<path fill="#FFFFFF" d="M136.1,186.7l-1.7-3.7l1.7-0.8l0.4,0.8c0.1-0.7,0.6-1.4,1.6-1.8c1.5-0.7,2.8-0.3,3.3,0.9
				c0.5,1.1,0.1,2.3-1.9,3.2l-1.5,0.7c0.4,0.8,1.1,1,2.1,0.6c0.7-0.3,1.3-0.9,1.6-1.4l1.3,1c-0.5,0.8-1.4,1.6-2.4,2
				C138.5,189,137,188.6,136.1,186.7z M137.2,184.2l0.3,0.7l1.3-0.6c0.9-0.4,1-0.8,0.8-1.3c-0.2-0.5-0.7-0.6-1.4-0.3
				C137.6,183,137.2,183.5,137.2,184.2z"/>
			<path fill="#FFFFFF" d="M136.4,192l-1.6,0.6l-1.2-3.5l1.4-0.5L136.4,192z"/>
			<path fill="#FFFFFF" d="M131,185l-0.2,1.6c-0.7-0.2-1.7-0.2-2.5,0.1c-0.9,0.3-1.2,0.6-1,1c0.4,1.1,4-1.3,4.9,1.4
				c0.4,1.3-0.5,2.5-2.4,3.2c-0.9,0.3-2,0.4-2.8,0.2l0.2-1.6c0.8,0.2,1.5,0.1,2.1-0.1c0.9-0.3,1.2-0.7,1-1c-0.4-1.1-4.1,1.3-4.9-1.4
				c-0.4-1.2,0.5-2.5,2.5-3.2C129,184.9,130.2,184.8,131,185z"/>
			<path fill="#FFFFFF" d="M113.3,194.7c-0.4-2,0.9-3.5,3.3-4l1.8-0.3l-0.4-2.5l2.1-0.4l1.6,9l-3.9,0.7
				C115.4,197.7,113.6,196.7,113.3,194.7z M115.4,194.3c0.2,1,0.9,1.5,2.2,1.2l1.7-0.3l-0.6-3.1l-1.7,0.3
				C115.7,192.7,115.2,193.4,115.4,194.3z"/>
			<path fill="#FFFFFF" d="M111.9,192.5c0.2,2.1-1.3,3.8-3.6,3.9c-2.2,0.2-4-1.2-4.1-3.3c-0.2-2.1,1.3-3.7,3.6-3.9
				C110,189.1,111.7,190.4,111.9,192.5z M106.2,193c0.1,1.2,0.9,1.9,1.9,1.8c1-0.1,1.7-0.9,1.6-2.1c-0.1-1.2-0.9-1.9-2-1.8
				C106.8,191,106.1,191.8,106.2,193z"/>
			<path fill="#FFFFFF" d="M98.4,196.8l0-1.9c0.2,0,0.3,0,0.5,0c1.1,0,1.9-0.6,1.8-2l-0.1-3.3l2,0l0.1,7l-2,0l0-0.9
				C100.3,196.4,99.5,196.8,98.4,196.8z"/>
			<path fill="#FFFFFF" d="M92.4,189.6c0.4-0.3,1.1-0.4,1.7-0.3c1.7,0.1,2.6,1,2.5,2.7l-0.2,2.9l1.1,0.1l-0.1,1.6l-1.1-0.1l-0.1,1.7
				l-2-0.1l0.1-1.7l-1.8-0.1l0.1-1.6l1.8,0.1l0.2-2.9c0-0.6-0.3-0.9-0.8-1c-0.3,0-0.6,0.1-0.8,0.2L92.4,189.6z"/>
			<path fill="#FFFFFF" d="M88.4,195.8l-1.8-0.2l0.2-1.6l1.7,0.2l0.6-5.3l2,0.2l-0.6,5.3l1.1,0.1l-0.2,1.6l-1.1-0.1l0,0.3
				c-0.2,1.6-1.3,2.5-3,2.3c-0.6-0.1-1.2-0.3-1.5-0.6l0.7-1.4c0.2,0.2,0.5,0.3,0.8,0.3c0.6,0.1,1-0.2,1-0.9L88.4,195.8z"/>
			<path fill="#FFFFFF" d="M86.5,192.2c-0.4,2.1-2.3,3.3-4.5,2.8c-2.2-0.4-3.5-2.2-3.1-4.3c0.4-2.1,2.3-3.3,4.5-2.8
				C85.6,188.3,86.9,190.1,86.5,192.2z M80.9,191.1c-0.2,1.2,0.4,2.1,1.4,2.3c1,0.2,1.9-0.4,2.1-1.6s-0.4-2.1-1.4-2.3
				C82,189.3,81.1,189.9,80.9,191.1z"/>
			<path fill="#FFFFFF" d="M75.9,196.3l-2-0.5l2.5-9.4l2,0.5L75.9,196.3z"/>
			<path fill="#FFFFFF" d="M72.2,194.7c-0.2,0.6-0.8,0.9-1.6,0.7c-0.7-0.2-1.1-0.8-0.9-1.4c0.2-0.6,0.8-1,1.6-0.7
				C72,193.4,72.4,194,72.2,194.7z M72.6,192.6l-2-0.6l2.1-6.7l2,0.6L72.6,192.6z"/>
			<path fill="#FFFFFF" d="M70.3,188.2c-0.8,2-2.9,2.8-4.9,2s-3-2.8-2.3-4.8c0.8-2,2.8-2.8,4.9-2C70.1,184.2,71,186.2,70.3,188.2z
				 M65,186.1c-0.4,1.1,0,2.1,1,2.5c1,0.4,2,0,2.4-1.2s0-2.1-1-2.5C66.4,184.6,65.4,185,65,186.1z"/>
			<path fill="#FFFFFF" d="M53.6,178.4l0.8-1.5l6.1,3.3l-0.7,1.2l-4.7,1.2c-1.1,0.3-1.4,0.6-1.7,1c-0.3,0.6-0.1,1.2,0.7,1.7
				c0.7,0.4,1.4,0.4,2.1,0.1l0.9,1.6c-1.1,0.6-2.6,0.5-4-0.3c-1.8-1-2.5-2.6-1.7-4c0.4-0.8,1-1.4,2.7-1.8l2.8-0.7L53.6,178.4z"/>
			<path fill="#FFFFFF" d="M51.3,180.4c-1.7,2.5-4,3-5.9,1.7c-1.9-1.3-2.3-3.6-0.6-6.1s4-3,5.9-1.7C52.5,175.5,53,177.8,51.3,180.4z
				 M46.5,177.1c-1.2,1.7-1,2.9-0.2,3.4c0.9,0.6,2,0.3,3.1-1.4c1.2-1.7,1-2.9,0.2-3.4C48.8,175.1,47.7,175.4,46.5,177.1z"/>
			<path fill="#FFFFFF" d="M40.3,168.7l1.1-1.3l5.4,4.4l-0.9,1.1l-4.9,0.4c-1.1,0.1-1.5,0.4-1.8,0.7c-0.5,0.6-0.3,1.2,0.4,1.8
				c0.6,0.5,1.3,0.7,2.1,0.5l0.6,1.7c-1.2,0.4-2.6,0.1-3.9-1c-1.6-1.3-2-3-0.9-4.3c0.6-0.7,1.3-1.2,3-1.3l2.9-0.2L40.3,168.7z"/>
			<path fill="#FFFFFF" d="M34.1,164.2c1.1-1.1,2.9-1.3,4.8,0.5c0.9,0.9,1.6,2.1,1.8,3.1l-1.7,0.6c-0.1-0.9-0.6-1.8-1.3-2.4
				c-0.8-0.7-1.5-0.9-2.1-0.3c-0.5,0.5-0.4,1.2,0.5,2l0.7,0.7l-1,1l-2.8,0.2l2.8,2.7l-1.2,1.2L30,169l1-1l3.1-0.3
				C33.1,166.5,33.2,165.1,34.1,164.2z"/>
			<path fill="#FFFFFF" d="M27.1,158.7l-2.2-2.9l1.3-1l2.2,2.9L27.1,158.7z"/>
			<path fill="#FFFFFF" d="M23.1,146.7l-1.7,0.1c0.1-0.9-0.1-2.1-0.6-3.1c-0.6-1.1-1.2-1.4-1.7-1.1c-1.5,0.8,2.1,4.9-0.9,6.6
				c-1.4,0.7-3.1,0.3-4.4-2c-0.5-1-0.9-2.2-0.8-3.2l1.7-0.2c0,1,0.2,1.9,0.6,2.6c0.6,1.1,1.2,1.3,1.8,1c1.5-0.8-2.1-4.9,0.9-6.5
				c1.3-0.7,3.1-0.2,4.4,2.1C23,144.2,23.3,145.7,23.1,146.7z"/>
			<path fill="#FFFFFF" d="M14.4,133.4l2.1,4.9c0.7-0.5,0.9-1.4,0.5-2.4c-0.3-0.7-0.7-1.1-1.3-1.4l0.7-1.5c0.9,0.3,1.7,1.1,2.2,2.2
				c1,2.2,0.2,4.3-1.8,5.1c-1.9,0.8-4-0.1-4.8-2c-0.8-1.9-0.2-3.9,1.9-4.8C14,133.5,14.2,133.4,14.4,133.4z M15.4,138.8l-1.4-3.2
				c-0.8,0.5-1,1.3-0.7,2.2C13.7,138.6,14.5,139,15.4,138.8z"/>
			<path fill="#FFFFFF" d="M13.5,132.7c-2,0.7-4-0.4-4.6-2.6s0.2-4.1,2.3-4.8c2-0.7,4,0.4,4.6,2.6C16.5,130,15.5,132,13.5,132.7z
				 M11.8,127.3c-1.2,0.4-1.6,1.3-1.3,2.3s1.3,1.5,2.4,1.1c1.2-0.4,1.6-1.3,1.3-2.3S12.9,126.9,11.8,127.3z"/>
			<path fill="#FFFFFF" d="M5.4,125.4c-0.6,0.2-1.2-0.2-1.4-1c-0.2-0.7,0.2-1.3,0.8-1.5c0.7-0.2,1.3,0.2,1.4,1S6,125.2,5.4,125.4z
				 M16.9,124.6l-1.6-0.2c0.1-0.3,0.1-0.6,0-0.9c-0.1-0.5-0.5-0.7-1.2-0.6l-6.8,1.7l-0.5-2l6.8-1.7c1.6-0.4,2.8,0.3,3.2,1.9
				C17.1,123.5,17.1,124.2,16.9,124.6z"/>
			<path fill="#FFFFFF" d="M4.4,121.2c-0.6,0.1-1.2-0.3-1.4-1s0.2-1.3,0.8-1.5c0.7-0.1,1.3,0.3,1.4,1S5,121.1,4.4,121.2z M6.4,120.6
				l-0.4-2l6.9-1.4l0.4,2L6.4,120.6z"/>
			<path fill="#FFFFFF" d="M7.6,108.9l4-0.5l0.3,2l-3.7,0.5c-1.1,0.1-1.6,0.7-1.5,1.6c0.1,1,0.8,1.6,2.1,1.4l3.5-0.4l0.3,2l-9.6,1.2
				l-0.3-2l3.4-0.4c-0.6-0.5-1-1.2-1.1-2.1C4.7,110.5,5.5,109.1,7.6,108.9z"/>
			<path fill="#FFFFFF" d="M4.2,95.7l7.1,2.4l0,2L7,101.7l4.4,1.6l0,2l-7,2.7l0-1.9l4.7-1.7l-4.8-1.7l0-1.7l4.7-1.8l-4.8-1.6
				L4.2,95.7z"/>
			<path fill="#FFFFFF" d="M8.1,88.5l4,0.4l-0.2,1.9L11,90.7c0.6,0.4,0.9,1.2,0.8,2.2c-0.2,1.6-1.2,2.5-2.4,2.4
				c-1.2-0.1-2-1.1-1.8-3.2l0.2-1.6c-0.9-0.1-1.4,0.4-1.5,1.5c-0.1,0.7,0.1,1.5,0.5,2.1l-1.5,0.6c-0.5-0.8-0.7-2-0.6-3.1
				C4.8,89.4,5.9,88.3,8.1,88.5z M9.7,90.7l-0.7-0.1L8.8,92c-0.1,1,0.2,1.3,0.7,1.3c0.5,0,0.9-0.4,1-1.1C10.5,91.6,10.3,91,9.7,90.7
				z"/>
			<path fill="#FFFFFF" d="M3.3,86.1l0.3-1.7l3.7,0.7L7,86.5L3.3,86.1z"/>
			<path fill="#FFFFFF" d="M12,84.9l-1.3-1c0.5-0.5,1-1.4,1.2-2.3c0.2-0.9,0-1.3-0.4-1.4c-1.1-0.2-0.9,4.2-3.6,3.6
				c-1.3-0.3-2-1.7-1.6-3.7c0.2-0.9,0.6-2,1.2-2.5l1.3,1c-0.5,0.6-0.8,1.2-0.9,1.9c-0.2,0.9,0,1.3,0.4,1.4c1.2,0.3,0.9-4.2,3.6-3.6
				c1.3,0.3,1.9,1.7,1.5,3.7C13.1,83.2,12.6,84.3,12,84.9z"/>
			<path fill="#FFFFFF" d="M12.4,64.6c1.9,0.7,2.6,2.6,1.8,4.9l-0.6,1.7l2.4,0.8l-0.7,2L6.6,71L8,67.3C8.8,65,10.5,64,12.4,64.6z
				 M11.7,66.7c-1-0.3-1.7,0.1-2.2,1.3L9,69.6l3,1.1l0.6-1.6C13,67.8,12.6,67,11.7,66.7z"/>
			<path fill="#FFFFFF" d="M15,64.5c-1.9-0.9-2.6-3-1.6-5.1s3-2.9,4.9-2s2.6,3,1.6,5S16.9,65.4,15,64.5z M17.4,59.4
				c-1.1-0.5-2.1-0.1-2.5,0.8s-0.1,1.9,1,2.5s2.1,0.1,2.5-0.8S18.5,59.9,17.4,59.4z"/>
			<path fill="#FFFFFF" d="M18.1,50.7l1.6,0.9c-0.1,0.1-0.2,0.2-0.2,0.4c-0.6,1-0.4,1.9,0.8,2.6l2.9,1.6l-1,1.8L16,54.5l1-1.7
				l0.8,0.5C17.4,52.5,17.5,51.6,18.1,50.7z"/>
			<path fill="#FFFFFF" d="M27.2,49.1c0,0.5-0.2,1.1-0.5,1.6c-0.9,1.4-2.2,1.7-3.6,0.8L20.7,50l-0.6,0.9L18.8,50l0.6-0.9l-1.4-0.9
				l1.1-1.7l1.4,0.9l1-1.5l1.3,0.9l-1,1.5l2.4,1.6c0.5,0.3,1,0.2,1.3-0.2c0.2-0.3,0.3-0.6,0.2-0.8L27.2,49.1z"/>
			<path fill="#FFFFFF" d="M23.9,42.6l1.1-1.4l1.3,0.9l-1.1,1.4l4.3,3.2l-1.2,1.6L24,45.1L23.3,46L22.1,45l0.7-0.9L22.5,44
				C21.2,43,21,41.6,22,40.2c0.3-0.5,0.8-0.9,1.2-1l0.9,1.3c-0.3,0.1-0.5,0.3-0.7,0.5c-0.4,0.5-0.3,0.9,0.3,1.4L23.9,42.6z"/>
			<path fill="#FFFFFF" d="M28,42.7c-1.6-1.4-1.7-3.6-0.2-5.3s3.7-1.9,5.3-0.5s1.7,3.6,0.2,5.3C31.8,43.9,29.6,44.1,28,42.7z
				 M31.7,38.4c-0.9-0.8-2-0.7-2.7,0.1s-0.6,1.8,0.3,2.6c0.9,0.8,2,0.7,2.7-0.1C32.7,40.3,32.6,39.2,31.7,38.4z"/>
			<path fill="#FFFFFF" d="M29.7,31.5l1.4-1.4l6.9,6.9l-1.4,1.4L29.7,31.5z"/>
			<path fill="#FFFFFF" d="M32.9,29.1c-0.4-0.5-0.4-1.2,0.2-1.7c0.6-0.5,1.3-0.5,1.7-0.1c0.5,0.5,0.4,1.2-0.1,1.7
				C34.1,29.6,33.4,29.6,32.9,29.1z M34.6,30.5l1.5-1.4l4.8,5.2l-1.5,1.4L34.6,30.5z"/>
			<path fill="#FFFFFF" d="M39.5,30.6c-1.3-1.7-1-3.9,0.7-5.3c1.7-1.4,4-1.2,5.3,0.4s1,3.8-0.7,5.2C43.1,32.4,40.8,32.3,39.5,30.6z
				 M43.9,27.1c-0.8-0.9-1.8-1-2.6-0.4c-0.8,0.6-0.9,1.7-0.2,2.7s1.8,1,2.6,0.4C44.6,29.1,44.7,28,43.9,27.1z"/>
			<path fill="#FFFFFF" d="M56.3,21l0.9,1.5l-5.9,3.6l-0.7-1.2l1.3-4.7c0.3-1.1,0.2-1.6-0.1-1.9c-0.4-0.6-1-0.7-1.8-0.2
				c-0.7,0.4-1.1,1-1.1,1.8l-1.8,0c0.1-1.3,0.8-2.5,2.2-3.3c1.7-1.1,3.5-0.9,4.3,0.5c0.5,0.8,0.7,1.6,0.2,3.3l-0.8,2.8L56.3,21z"/>
			<path fill="#FFFFFF" d="M55.8,18c-1.3-2.7-0.6-5,1.4-6c2-1,4.3-0.2,5.6,2.5c1.3,2.7,0.6,5-1.4,6C59.4,21.6,57.1,20.8,55.8,18z
				 M60.9,15.5c-0.9-1.9-2-2.3-2.9-1.9c-0.9,0.5-1.2,1.6-0.3,3.4c0.9,1.9,2,2.3,2.9,1.9C61.5,18.5,61.8,17.4,60.9,15.5z"/>
			<path fill="#FFFFFF" d="M71.3,14.4l0.6,1.6l-6.5,2.5L65,17.2l2.1-4.4c0.5-1,0.4-1.5,0.3-1.9c-0.3-0.7-0.9-0.9-1.8-0.5
				c-0.7,0.3-1.2,0.8-1.4,1.5l-1.8-0.4c0.3-1.2,1.3-2.3,2.8-2.9c1.9-0.7,3.6-0.2,4.2,1.3c0.3,0.8,0.4,1.7-0.4,3.3l-1.3,2.6
				L71.3,14.4z"/>
			<path fill="#FFFFFF" d="M78.3,11.2c0.4,1.5-0.3,3.2-2.8,3.9c-1.2,0.4-2.6,0.4-3.6,0l0.3-1.8c0.8,0.3,1.8,0.3,2.7,0.1
				c1-0.3,1.5-0.9,1.3-1.6c-0.2-0.7-0.8-0.9-2-0.6l-0.9,0.3L73,10.1l1.2-2.6l-3.8,1.1L70,7l6.2-1.8l0.4,1.3l-1.3,2.8
				C76.9,9.2,78,9.9,78.3,11.2z"/>
			<path fill="#FFFFFF" d="M86.6,7.9l3.7-0.5L90.5,9l-3.7,0.5L86.6,7.9z"/>
		</g>
	</g>
</g>
</svg>
